<svg xmlns="http://www.w3.org/2000/svg" width="400" height="400"><path fill="#0B4870" d="M309 149a6 6 0 0 0-2-4 6 6 0 0 0-5-2L97 168a6 6 0 0 0-6 6v54c0 24 69 30 109 30s109-6 109-30v-79z"/><path fill="#0B4870" d="M309 167H200v91c39 0 105-6 109-28v-63z"/><path fill="#0E538C" d="M380 116 225 63c-16-6-34-6-50 0L20 116c-7 3-12 9-12 17s4 15 12 17l155 53a79 79 0 0 0 25 4 79 79 0 0 0 25-4l155-53c8-2 12-9 12-17s-4-14-12-17z"/><path fill="#2A94F4" d="M315 264a6 6 0 0 1-6-6v-79a6 6 0 0 0-5-6l-106-36a6 6 0 0 1-4-8c1-3 5-5 8-4l106 37a18 18 0 0 1 13 17v79a6 6 0 0 1-6 6z"/><path fill="#FFBE55" d="M321 306h-12a6 6 0 0 1-6-6v-36a12 12 0 1 1 24 0v36a6 6 0 0 1-6 6z"/><path fill="#5C546A" d="M309 215v-17 17z"/><ellipse cx="200" cy="131.2" fill="#D3D3D3" rx="24.2" ry="12.1"/></svg>